<?xml version="1.0" encoding="iso-8859-1"?>
<!-- Generator: Adobe Illustrator 19.0.0, SVG Export Plug-In . SVG Version: 6.00 Build 0)  -->
<svg xmlns="http://www.w3.org/2000/svg" xmlns:xlink="http://www.w3.org/1999/xlink" version="1.1" id="Layer_1" x="0px" y="0px" viewBox="0 0 512 512" style="enable-background:new 0 0 512 512;" xml:space="preserve" width="512px" height="512px">
<g>
	<g>
		<path d="M459.46,145.86v30H482v27.81l-5.14,5.48l-15-18.25h-34.43l-20.25,22.43l-20.25-22.43h-42.98l-8.62,11.53l-8.62-11.53    h-59.92c-24.18-46.62-72.39-76.23-125.46-76.23C63.4,114.67,0,178.07,0,256s63.4,141.33,141.33,141.33    c53.07,0,101.28-29.61,125.46-76.23H482v15.04h-22.54v30H512V321.1V171.71v-25.85H459.46z M92.3,285.95    c-16.54,0-29.95-13.41-29.95-29.95c0-16.54,13.41-29.95,29.95-29.95c16.54,0,29.95,13.41,29.95,29.95S108.84,285.95,92.3,285.95z     M482,271H249v-30h233V271z" fill="#febf85"/>
	</g>
</g>
<g>
</g>
<g>
</g>
<g>
</g>
<g>
</g>
<g>
</g>
<g>
</g>
<g>
</g>
<g>
</g>
<g>
</g>
<g>
</g>
<g>
</g>
<g>
</g>
<g>
</g>
<g>
</g>
<g>
</g>
</svg>
