<?xml version="1.0" encoding="UTF-8" standalone="no"?>
<!-- Created with Inkscape (http://www.inkscape.org/) -->

<svg
   xmlns:dc="http://purl.org/dc/elements/1.1/"
   xmlns:cc="http://creativecommons.org/ns#"
   xmlns:rdf="http://www.w3.org/1999/02/22-rdf-syntax-ns#"
   xmlns:svg="http://www.w3.org/2000/svg"
   xmlns="http://www.w3.org/2000/svg"
   xmlns:sodipodi="http://sodipodi.sourceforge.net/DTD/sodipodi-0.dtd"
   xmlns:inkscape="http://www.inkscape.org/namespaces/inkscape"
   width="281.66"
   height="281.66"
   id="svg4671"
   version="1.1"
   inkscape:version="0.48.4 r9939"
   inkscape:export-filename="/home/connor/Downloads/work/bitcoinpass_extension/icon.png"
   inkscape:export-xdpi="15.34"
   inkscape:export-ydpi="15.34"
   sodipodi:docname="New document 17">
  <defs
     id="defs4673" />
  <sodipodi:namedview
     id="base"
     pagecolor="#ffffff"
     bordercolor="#666666"
     borderopacity="1.0"
     inkscape:pageopacity="0.0"
     inkscape:pageshadow="2"
     inkscape:zoom="1.979899"
     inkscape:cx="66.087659"
     inkscape:cy="96.326973"
     inkscape:document-units="px"
     inkscape:current-layer="layer1"
     showgrid="false"
     fit-margin-top="0"
     fit-margin-left="0"
     fit-margin-right="0"
     fit-margin-bottom="0"
     inkscape:window-width="2560"
     inkscape:window-height="1605"
     inkscape:window-x="0"
     inkscape:window-y="73"
     inkscape:window-maximized="1" />
  <metadata
     id="metadata4676">
    <rdf:RDF>
      <cc:Work
         rdf:about="">
        <dc:format>image/svg+xml</dc:format>
        <dc:type
           rdf:resource="http://purl.org/dc/dcmitype/StillImage" />
        <dc:title></dc:title>
      </cc:Work>
    </rdf:RDF>
  </metadata>
  <g
     inkscape:label="Layer 1"
     inkscape:groupmode="layer"
     id="layer1"
     transform="translate(-22.029018,-336.92763)">
    <path
       sodipodi:type="arc"
       style="fill:#febf85;fill-opacity:1;stroke:none"
       id="path4708"
       sodipodi:cx="-516.18793"
       sodipodi:cy="-138.56346"
       sodipodi:rx="169.70563"
       sodipodi:ry="169.70563"
       d="m -346.4823,-138.56346 a 169.70563,169.70563 0 1 1 -339.41125,0 169.70563,169.70563 0 1 1 339.41125,0 z"
       transform="matrix(0.82984873,0,0,0.82984873,591.21692,592.74434)" />
    <path
       style="fill:none"
       inkscape:connector-curvature="0"
       d="m 150.85902,465.75763 h 24 v 24 h -24 z"
       id="path4790" />
    <path
       inkscape:connector-curvature="0"
       d="m 168.38377,465.35426 c -6.96969,-19.80412 -25.83883,-33.99847 -48.02283,-33.99847 -28.133741,0 -50.997711,22.86397 -50.997711,50.9977 0,28.13374 22.86397,50.99771 50.997711,50.99771 22.184,0 41.05314,-14.19437 48.02283,-33.99847 h 36.97333 v 33.99847 h 33.99847 v -33.99847 h 16.99924 v -33.99847 h -87.97104 z m -48.02283,33.99847 c -9.34959,0 -16.99924,-7.64966 -16.99924,-16.99924 0,-9.34957 7.64965,-16.99923 16.99924,-16.99923 9.34957,0 16.99923,7.64966 16.99923,16.99923 0,9.34958 -7.64966,16.99924 -16.99923,16.99924 z"
       id="path4792"
       style="fill:#feb085;fill-opacity:1" />
    <path
       style="fill:#ffffff;fill-opacity:1"
       id="path4833"
       d="m 168.38377,456.16254 c -6.96969,-19.80411 -25.83883,-33.99847 -48.02283,-33.99847 -28.133741,0 -50.997711,22.86397 -50.997711,50.9977 0,28.13374 22.86397,50.99771 50.997711,50.99771 22.184,0 41.05314,-14.19437 48.02283,-33.99847 h 36.97333 v 33.99847 h 33.99847 v -33.99847 h 16.99924 v -33.99847 h -87.97104 z m -48.02283,33.99847 c -9.34959,0 -16.99924,-7.64966 -16.99924,-16.99924 0,-9.34957 7.64965,-16.99923 16.99924,-16.99923 9.34957,0 16.99923,7.64966 16.99923,16.99923 0,9.34958 -7.64966,16.99924 -16.99923,16.99924 z"
       inkscape:connector-curvature="0" />
  </g>
</svg>
