<?xml version="1.0" encoding="UTF-8" standalone="no"?>
<!-- Generator: Adobe Illustrator 19.0.0, SVG Export Plug-In . SVG Version: 6.00 Build 0)  -->

<svg
   xmlns:dc="http://purl.org/dc/elements/1.1/"
   xmlns:cc="http://creativecommons.org/ns#"
   xmlns:rdf="http://www.w3.org/1999/02/22-rdf-syntax-ns#"
   xmlns:svg="http://www.w3.org/2000/svg"
   xmlns="http://www.w3.org/2000/svg"
   xmlns:sodipodi="http://sodipodi.sourceforge.net/DTD/sodipodi-0.dtd"
   xmlns:inkscape="http://www.inkscape.org/namespaces/inkscape"
   version="1.1"
   id="Layer_1"
   x="0px"
   y="0px"
   viewBox="0 0 512 512"
   style="enable-background:new 0 0 512 512;"
   xml:space="preserve"
   inkscape:version="0.48.4 r9939"
   width="100%"
   height="100%"
   sodipodi:docname="octopus3.svg"><metadata
     id="metadata3131"><rdf:RDF><cc:Work
         rdf:about=""><dc:format>image/svg+xml</dc:format><dc:type
           rdf:resource="http://purl.org/dc/dcmitype/StillImage" /><dc:title></dc:title></cc:Work></rdf:RDF></metadata><defs
     id="defs3129" /><sodipodi:namedview
     pagecolor="#ffffff"
     bordercolor="#666666"
     borderopacity="1"
     objecttolerance="10"
     gridtolerance="10"
     guidetolerance="10"
     inkscape:pageopacity="0"
     inkscape:pageshadow="2"
     inkscape:window-width="2560"
     inkscape:window-height="1605"
     id="namedview3127"
     showgrid="false"
     inkscape:zoom="0.66291261"
     inkscape:cx="252.51438"
     inkscape:cy="93.839234"
     inkscape:window-x="0"
     inkscape:window-y="73"
     inkscape:window-maximized="1"
     inkscape:current-layer="Layer_1" /><path
     style="fill:#febf85;fill-opacity:1"
     d="M400.203,310.783v21.641c0,28.904-22.864,53.105-51.757,53.648  c-29.562,0.564-53.784-23.323-53.784-52.76v118.08c0,8.015,6.709,14.494,14.818,14.086c7.576-0.366,13.396-6.907,13.396-14.494  v-22.582c0-10.909,9.039-19.708,20.032-19.321c10.481,0.376,18.632,9.3,18.632,19.781v21.641c0,28.904-22.864,53.105-51.757,53.648  c-29.562,0.564-53.784-23.323-53.784-52.76c0,29.436-24.233,53.324-53.794,52.76c-28.893-0.543-51.746-24.745-51.746-53.648v-22.101  c0-10.909,9.039-19.708,20.032-19.321c10.481,0.376,18.632,9.3,18.632,19.781v22.529c0,8.015,6.709,14.494,14.817,14.086  c7.576-0.366,13.396-6.907,13.396-14.494V333.312c0,29.436-24.233,53.324-53.794,52.76c-28.893-0.543-51.746-24.745-51.746-53.648  v-22.101c0-10.909,9.039-19.708,20.032-19.321c10.481,0.376,18.632,9.3,18.632,19.781v22.529c0,8.015,6.709,14.494,14.817,14.086  c7.576-0.366,13.396-6.907,13.396-14.494V246.32c0-0.805,0-1.62,0.01-2.424h154.633c0.01,0.805,0.01,1.62,0.01,2.424v86.993  c0,8.015,6.709,14.494,14.817,14.086c7.576-0.366,13.396-6.907,13.396-14.494v-22.582c0-10.909,9.039-19.708,20.032-19.321  C392.052,291.378,400.203,300.302,400.203,310.783z"
     id="path3079" /><g
     id="g3081"
     style="fill:#feb085;fill-opacity:1"><path
       style="fill:#feb085;fill-opacity:1"
       d="M255.999,451.392c0,29.436-24.233,53.324-53.794,52.76c-28.893-0.543-51.746-24.745-51.746-53.648   v-22.101c0-10.909,9.039-19.708,20.032-19.321c10.481,0.376,18.632,9.3,18.632,19.781v22.529c0,8.015,6.709,14.494,14.817,14.086   c7.576-0.366,13.396-6.907,13.396-14.494V333.312c0,29.436-24.233,53.324-53.794,52.76c-28.893-0.543-51.746-24.745-51.746-53.648   v-22.101c0-10.909,9.039-19.708,20.032-19.321c10.481,0.376,18.632,9.3,18.632,19.781v22.529c0,8.015,6.709,14.494,14.817,14.086   c7.576-0.366,13.396-6.907,13.396-14.494v-39.301V246.32c0-0.805,0-1.62,0.01-2.424h77.316V451.392z"
       id="path3083" /><path
       style="fill:#feb085;fill-opacity:1"
       d="M333.326,246.321v30.481c-22.195,20.053-48.768,33.533-77.327,33.533s-55.132-13.48-77.327-33.533   v-30.481c0-0.805,0-1.62,0.01-2.424h154.633C333.326,244.7,333.326,245.515,333.326,246.321z"
       id="path3085" /></g><path
     style="fill:#febf85;fill-opacity:1"
     d="M396.82,117.094c0,60.341-63.05,160.329-140.825,160.329s-140.825-99.988-140.825-160.329  S178.221,7.837,255.996,7.837S396.82,56.753,396.82,117.094z"
     id="path3087" /><path
     style="fill:#feb085;fill-opacity:1"
     d="M286.555,272.297c-9.844,3.302-20.074,5.12-30.565,5.12c-77.776,0-140.818-99.982-140.818-160.328  c0-60.336,63.042-109.25,140.818-109.25c10.491,0,20.721,0.888,30.565,2.591C223.471,21.246,176.302,64.894,176.302,117.09  C176.302,169.297,223.471,251.147,286.555,272.297z"
     id="path3089" /><g
     id="g3097" /><g
     id="g3099" /><g
     id="g3101" /><g
     id="g3103" /><g
     id="g3105" /><g
     id="g3107" /><g
     id="g3109" /><g
     id="g3111" /><g
     id="g3113" /><g
     id="g3115" /><g
     id="g3117" /><g
     id="g3119" /><g
     id="g3121" /><g
     id="g3123" /><g
     id="g3125" /></svg>