<?xml version="1.0" encoding="UTF-8" standalone="no"?>
<!-- Generator: Adobe Illustrator 19.0.0, SVG Export Plug-In . SVG Version: 6.00 Build 0)  -->

<svg
   xmlns:dc="http://purl.org/dc/elements/1.1/"
   xmlns:cc="http://creativecommons.org/ns#"
   xmlns:rdf="http://www.w3.org/1999/02/22-rdf-syntax-ns#"
   xmlns:svg="http://www.w3.org/2000/svg"
   xmlns="http://www.w3.org/2000/svg"
   xmlns:sodipodi="http://sodipodi.sourceforge.net/DTD/sodipodi-0.dtd"
   xmlns:inkscape="http://www.inkscape.org/namespaces/inkscape"
   version="1.1"
   id="Layer_1"
   x="0px"
   y="0px"
   viewBox="0 0 512 512"
   style="enable-background:new 0 0 512 512;"
   xml:space="preserve"
   inkscape:version="0.48.4 r9939"
   width="100%"
   height="100%"
   sodipodi:docname="octopus.svg"><metadata
     id="metadata3131"><rdf:RDF><cc:Work
         rdf:about=""><dc:format>image/svg+xml</dc:format><dc:type
           rdf:resource="http://purl.org/dc/dcmitype/StillImage" /></cc:Work></rdf:RDF></metadata><defs
     id="defs3129" /><sodipodi:namedview
     pagecolor="#ffffff"
     bordercolor="#666666"
     borderopacity="1"
     objecttolerance="10"
     gridtolerance="10"
     guidetolerance="10"
     inkscape:pageopacity="0"
     inkscape:pageshadow="2"
     inkscape:window-width="2560"
     inkscape:window-height="1605"
     id="namedview3127"
     showgrid="false"
     inkscape:zoom="1.3258252"
     inkscape:cx="252.51438"
     inkscape:cy="191.89137"
     inkscape:window-x="0"
     inkscape:window-y="73"
     inkscape:window-maximized="1"
     inkscape:current-layer="Layer_1" /><path
     style="fill:#febf85;fill-opacity:1"
     d="M400.203,310.783v21.641c0,28.904-22.864,53.105-51.757,53.648  c-29.562,0.564-53.784-23.323-53.784-52.76v118.08c0,8.015,6.709,14.494,14.818,14.086c7.576-0.366,13.396-6.907,13.396-14.494  v-22.582c0-10.909,9.039-19.708,20.032-19.321c10.481,0.376,18.632,9.3,18.632,19.781v21.641c0,28.904-22.864,53.105-51.757,53.648  c-29.562,0.564-53.784-23.323-53.784-52.76c0,29.436-24.233,53.324-53.794,52.76c-28.893-0.543-51.746-24.745-51.746-53.648v-22.101  c0-10.909,9.039-19.708,20.032-19.321c10.481,0.376,18.632,9.3,18.632,19.781v22.529c0,8.015,6.709,14.494,14.817,14.086  c7.576-0.366,13.396-6.907,13.396-14.494V333.312c0,29.436-24.233,53.324-53.794,52.76c-28.893-0.543-51.746-24.745-51.746-53.648  v-22.101c0-10.909,9.039-19.708,20.032-19.321c10.481,0.376,18.632,9.3,18.632,19.781v22.529c0,8.015,6.709,14.494,14.817,14.086  c7.576-0.366,13.396-6.907,13.396-14.494V246.32c0-0.805,0-1.62,0.01-2.424h154.633c0.01,0.805,0.01,1.62,0.01,2.424v86.993  c0,8.015,6.709,14.494,14.817,14.086c7.576-0.366,13.396-6.907,13.396-14.494v-22.582c0-10.909,9.039-19.708,20.032-19.321  C392.052,291.378,400.203,300.302,400.203,310.783z"
     id="path3079" /><g
     id="g3081"
     style="fill:#feb085;fill-opacity:1"><path
       style="fill:#feb085;fill-opacity:1"
       d="M255.999,451.392c0,29.436-24.233,53.324-53.794,52.76c-28.893-0.543-51.746-24.745-51.746-53.648   v-22.101c0-10.909,9.039-19.708,20.032-19.321c10.481,0.376,18.632,9.3,18.632,19.781v22.529c0,8.015,6.709,14.494,14.817,14.086   c7.576-0.366,13.396-6.907,13.396-14.494V333.312c0,29.436-24.233,53.324-53.794,52.76c-28.893-0.543-51.746-24.745-51.746-53.648   v-22.101c0-10.909,9.039-19.708,20.032-19.321c10.481,0.376,18.632,9.3,18.632,19.781v22.529c0,8.015,6.709,14.494,14.817,14.086   c7.576-0.366,13.396-6.907,13.396-14.494v-39.301V246.32c0-0.805,0-1.62,0.01-2.424h77.316V451.392z"
       id="path3083" /><path
       style="fill:#feb085;fill-opacity:1"
       d="M333.326,246.321v30.481c-22.195,20.053-48.768,33.533-77.327,33.533s-55.132-13.48-77.327-33.533   v-30.481c0-0.805,0-1.62,0.01-2.424h154.633C333.326,244.7,333.326,245.515,333.326,246.321z"
       id="path3085" /></g><path
     style="fill:#febf85;fill-opacity:1"
     d="M396.82,117.094c0,60.341-63.05,160.329-140.825,160.329s-140.825-99.988-140.825-160.329  S178.221,7.837,255.996,7.837S396.82,56.753,396.82,117.094z"
     id="path3087" /><path
     style="fill:#feb085;fill-opacity:1"
     d="M286.555,272.297c-9.844,3.302-20.074,5.12-30.565,5.12c-77.776,0-140.818-99.982-140.818-160.328  c0-60.336,63.042-109.25,140.818-109.25c10.491,0,20.721,0.888,30.565,2.591C223.471,21.246,176.302,64.894,176.302,117.09  C176.302,169.297,223.471,251.147,286.555,272.297z"
     id="path3089" /><path
     d="M214.122,202.817c-4.329,0-7.837,3.509-7.837,7.837s3.508,7.837,7.837,7.837h16.974c4.329,0,7.837-3.509,7.837-7.837  s-3.508-7.837-7.837-7.837H214.122z"
     id="path3091" /><path
     d="M280.895,202.817c-4.329,0-7.837,3.509-7.837,7.837s3.508,7.837,7.837,7.837h16.975c4.329,0,7.837-3.509,7.837-7.837  s-3.508-7.837-7.837-7.837H280.895z"
     id="path3093" /><path
     d="m 381.847,283.17 c -7.432,-0.256 -14.491,2.438 -19.844,7.605 -5.352,5.168 -8.3,12.11 -8.3,19.549 l 0,22.582 c 0,3.517 -2.664,6.508 -5.952,6.666 -1.736,0.087 -3.378,-0.521 -4.632,-1.715 -1.261,-1.199 -1.955,-2.812 -1.955,-4.545 l 0,-86 c 14.521,-13.621 27.62,-30.313 38.401,-49.068 2.157,-3.752 0.864,-8.544 -2.889,-10.7 -3.751,-2.157 -8.544,-0.864 -10.699,2.889 -21.996,38.264 -62.439,79.152 -109.98,79.152 -44.113,0 -77.458,-34.166 -93.408,-54.532 -24.044,-30.7 -39.58,-69.152 -39.58,-97.961 0,-55.922 59.657,-101.418 132.987,-101.418 73.33,0 132.988,45.496 132.988,101.419 0,13.82 -3.59,30.17 -10.382,47.283 -1.597,4.023 0.37,8.578 4.393,10.176 4.023,1.597 8.579,-0.37 10.175,-4.394 7.515,-18.936 11.487,-37.285 11.487,-53.065 0,-31.659 -15.726,-61.295 -44.28,-83.448 C 332.412,11.949 295.341,0 255.996,0 216.651,0 179.579,11.949 151.614,33.646 c -28.555,22.153 -44.28,51.789 -44.28,83.448 0,32.587 16.443,73.826 42.913,107.624 6.563,8.38 13.45,15.945 20.587,22.67 l 0,85.517 c 0,3.517 -2.664,6.508 -5.952,6.666 -1.74,0.087 -3.378,-0.521 -4.632,-1.715 -1.261,-1.199 -1.955,-2.812 -1.955,-4.545 l 0,-22.529 c 0,-14.958 -11.503,-27.086 -26.193,-27.613 -7.455,-0.271 -14.491,2.438 -19.844,7.605 -5.352,5.168 -8.3,12.11 -8.3,19.549 l 0,22.101 c 0,33.286 26.663,60.868 59.433,61.483 16.411,0.32 31.877,-5.848 43.599,-17.348 0.865,-0.85 1.702,-1.719 2.509,-2.609 l 0,77.034 c 0,3.517 -2.664,6.508 -5.952,6.666 -1.734,0.087 -3.378,-0.521 -4.632,-1.715 -1.261,-1.199 -1.955,-2.812 -1.955,-4.545 l 0,-22.529 c 0,-14.958 -11.503,-27.086 -26.193,-27.613 -7.453,-0.261 -14.491,2.439 -19.844,7.605 -5.352,5.168 -8.3,12.11 -8.3,19.549 -0.57555,17.43321 -0.051,37.20587 7.288,51.276 1.411,2.644 4.12,4.15 6.922,4.15 1.243,0 2.507,-0.298 3.681,-0.924 3.818,-2.038 5.263,-6.785 3.226,-10.603 -6.3057,-14.30339 -6.28681,-28.26927 -5.442,-43.898 0,-3.146 1.248,-6.085 3.513,-8.272 2.264,-2.186 5.258,-3.322 8.4,-3.217 6.107,0.219 11.076,5.579 11.076,11.949 l 0,22.529 c 0,5.98 2.489,11.776 6.827,15.902 4.396,4.18 10.165,6.313 16.205,6.012 11.695,-0.565 20.856,-10.369 20.856,-22.321 l 0,-117.672 0,-52.842 c 7.6,2.36 15.281,3.86 22.986,4.469 l 0,35.3 c 0,4.328 3.508,7.837 7.837,7.837 4.329,0 7.837,-3.509 7.837,-7.837 l 0,-35.319 c 7.661,-0.62 15.351,-2.138 22.992,-4.53 l 0,52.922 0,118.08 c 0,5.98 2.489,11.776 6.827,15.902 4.396,4.18 10.157,6.313 16.205,6.012 11.695,-0.565 20.856,-10.369 20.856,-22.321 l 0,-22.582 c 0,-3.146 1.248,-6.085 3.513,-8.272 2.264,-2.186 5.273,-3.324 8.4,-3.217 6.107,0.219 11.076,5.579 11.076,11.949 l 0,21.641 c 0,24.804 -19.768,45.355 -44.07,45.812 -12.129,0.231 -23.62,-4.334 -32.31,-12.86 -8.696,-8.533 -13.486,-19.92 -13.486,-32.065 0,-0.021 -0.003,-0.04 -0.003,-0.061 l 0,-104.968 c 0,-4.328 -3.508,-7.837 -7.837,-7.837 -4.329,0 -7.837,3.509 -7.837,7.837 l 0,105.031 c 0,0.014 0.002,0.027 0.002,0.041 -0.01,12.126 -4.798,23.495 -13.485,32.017 -8.691,8.528 -20.157,13.105 -32.325,12.866 -8.065,-0.151 -15.932,-2.521 -22.754,-6.853 -3.656,-2.321 -8.498,-1.238 -10.817,2.415 -2.321,3.654 -1.24,8.498 2.415,10.817 9.251,5.874 19.922,9.087 30.86,9.292 16.425,0.311 31.877,-5.849 43.599,-17.348 4.114,-4.036 7.579,-8.547 10.345,-13.41 2.765,4.865 6.232,9.378 10.347,13.415 11.434,11.219 26.449,17.355 42.395,17.354 0.395,0 0.793,-0.004 1.189,-0.011 32.779,-0.617 59.448,-28.198 59.448,-61.483 l 0,-21.641 c 0,-14.958 -11.503,-27.086 -26.193,-27.614 -7.435,-0.251 -14.491,2.439 -19.844,7.605 -5.352,5.168 -8.3,12.11 -8.3,19.549 l 0,22.582 c 0,3.517 -2.664,6.508 -5.952,6.666 -1.742,0.087 -3.378,-0.521 -4.632,-1.715 -1.261,-1.199 -1.955,-2.812 -1.955,-4.545 l 0,-77.436 c 0.807,0.89 1.644,1.76 2.509,2.609 11.717,11.496 27.207,17.661 43.584,17.342 32.779,-0.617 59.448,-28.198 59.448,-61.483 l 0,-21.641 C 408.04,295.827 396.537,283.697 381.847,283.17 z m -172.349,50.143 c 0,12.141 -4.79,23.526 -13.486,32.059 -8.692,8.528 -20.174,13.098 -32.325,12.866 -24.292,-0.458 -44.055,-21.008 -44.055,-45.812 l 0,-22.101 c 0,-3.146 1.248,-6.085 3.513,-8.272 2.264,-2.186 5.261,-3.319 8.4,-3.217 6.107,0.219 11.076,5.579 11.076,11.949 l 0,22.529 c 0,5.98 2.489,11.776 6.827,15.902 4.396,4.18 10.165,6.313 16.205,6.012 11.695,-0.565 20.856,-10.369 20.856,-22.321 l 0,-72.409 c 7.481,5.505 15.167,10.127 22.989,13.834 l 0,58.981 z m 182.868,-0.888 c 0,24.804 -19.768,45.355 -44.07,45.812 -12.099,0.232 -23.62,-4.335 -32.31,-12.86 -8.696,-8.533 -13.486,-19.92 -13.486,-32.065 l 0,-59.085 c 7.813,-3.71 15.505,-8.341 22.989,-13.845 l 0,72.93 c 0,5.98 2.489,11.776 6.827,15.902 4.396,4.18 10.157,6.313 16.205,6.012 11.695,-0.565 20.856,-10.369 20.856,-22.321 l 0,-22.582 c 0,-3.146 1.248,-6.085 3.513,-8.272 2.264,-2.186 5.281,-3.328 8.4,-3.217 6.107,0.219 11.076,5.579 11.076,11.949 l 0,21.642 z"
     id="path3095"
     inkscape:connector-curvature="0"
     sodipodi:nodetypes="ccssccsccccscssscccssscsscsccssccsscccsccssccccscccscssccscccssscccsccssscssccssssssccccccccccccssccssccscccscccccssscssccscccccccsccsccssscscc" /><g
     id="g3097" /><g
     id="g3099" /><g
     id="g3101" /><g
     id="g3103" /><g
     id="g3105" /><g
     id="g3107" /><g
     id="g3109" /><g
     id="g3111" /><g
     id="g3113" /><g
     id="g3115" /><g
     id="g3117" /><g
     id="g3119" /><g
     id="g3121" /><g
     id="g3123" /><g
     id="g3125" /></svg>