<?xml version="1.0" encoding="UTF-8" standalone="no"?>
<!-- Generator: Adobe Illustrator 19.0.0, SVG Export Plug-In . SVG Version: 6.00 Build 0)  -->

<svg
   xmlns:dc="http://purl.org/dc/elements/1.1/"
   xmlns:cc="http://creativecommons.org/ns#"
   xmlns:rdf="http://www.w3.org/1999/02/22-rdf-syntax-ns#"
   xmlns:svg="http://www.w3.org/2000/svg"
   xmlns="http://www.w3.org/2000/svg"
   xmlns:sodipodi="http://sodipodi.sourceforge.net/DTD/sodipodi-0.dtd"
   xmlns:inkscape="http://www.inkscape.org/namespaces/inkscape"
   version="1.1"
   id="Layer_1"
   x="0px"
   y="0px"
   viewBox="0 0 288.40701 523.81653"
   xml:space="preserve"
   inkscape:version="0.48.4 r9939"
   width="100%"
   height="100%"
   sodipodi:docname="octopus3.svg"
   inkscape:export-filename="/home/connor/Downloads/work/bitcoinpass_extension/icon.png"
   inkscape:export-xdpi="8.25"
   inkscape:export-ydpi="8.25"><metadata
     id="metadata3131"><rdf:RDF><cc:Work
         rdf:about=""><dc:format>image/svg+xml</dc:format><dc:type
           rdf:resource="http://purl.org/dc/dcmitype/StillImage" /><dc:title /></cc:Work></rdf:RDF></metadata><defs
     id="defs3129" /><sodipodi:namedview
     pagecolor="#ffffff"
     bordercolor="#666666"
     borderopacity="1"
     objecttolerance="10"
     gridtolerance="10"
     guidetolerance="10"
     inkscape:pageopacity="0"
     inkscape:pageshadow="2"
     inkscape:window-width="2560"
     inkscape:window-height="1605"
     id="namedview3127"
     showgrid="false"
     inkscape:zoom="1.3258252"
     inkscape:cx="112.84651"
     inkscape:cy="59.576418"
     inkscape:window-x="0"
     inkscape:window-y="73"
     inkscape:window-maximized="1"
     inkscape:current-layer="Layer_1"
     fit-margin-top="0"
     fit-margin-left="0"
     fit-margin-right="0"
     fit-margin-bottom="0" /><path
     style="fill:#febf85;fill-opacity:1;stroke:none"
     inkscape:transform-center-y="20.114852"
     d="m -340.91976,315.89573 -40.80149,-40.17557 0,-54.68456 38.21073,-15.24724 41.45773,12.63445 0,55.42281 z"
     id="path4134"
     inkscape:connector-curvature="0"
     sodipodi:nodetypes="ccccccc"
     transform="matrix(0.72830577,0,0,0.8743859,394.14579,247.60173)" /><path
     style="fill:#febf85;fill-opacity:1"
     d="m 288.407,293.83563 0,18.69337 c 0,24.96712 -22.864,45.87181 -51.757,46.34085 -29.562,0.48718 -53.784,-20.14628 -53.784,-45.5738 l 0,101.99686 c 0,6.92332 6.709,12.51984 14.818,12.16741 7.576,-0.31614 13.396,-5.96622 13.396,-12.51983 l 0,-19.50621 c 0,-9.42314 9.039,-17.02367 20.032,-16.68938 10.481,0.32479 18.632,8.03329 18.632,17.08672 l 0,18.69338 c 0,24.96712 -22.864,45.87181 -51.757,46.34085 l -107.578,0 c -28.8981,0 -51.746,-21.3746 -51.746,-46.34085 l 0,-19.09072 c 0,-9.42314 9.039,-17.02367 20.032,-16.68938 10.481,0.32479 18.632,8.03329 18.632,17.08672 l 0,19.46043 c 0,6.92331 6.709,12.51984 14.817,12.16741 7.576,-0.31615 13.396,-5.96623 13.396,-12.51984 l 0,-101.64357 c 0,25.42666 -24.233,46.06098 -53.794,45.5738 C 22.853,358.40081 0,337.49526 0,312.529 l 0,-19.09072 c 0,-9.42313 9.039,-17.02366 20.032,-16.68937 10.481,0.32478 18.632,8.03329 18.632,17.08672 l 0,19.46042 c 0,6.92332 6.709,12.51984 14.817,12.16741 7.576,-0.31615 13.396,-5.96623 13.396,-12.51983 l 0,-74.79079 c 0,-0.69536 0,-1.39935 0.01,-2.09384 l 154.633,0 c 0.01,0.69535 0.01,1.39935 0.01,2.09384 l 0,75.14408 c 0,6.92331 6.709,12.51984 14.817,12.16741 7.576,-0.31615 13.396,-5.96623 13.396,-12.51984 l 0,-19.50621 c 0,-9.42313 9.039,-17.02366 20.032,-16.68937 10.481,0.32478 18.632,8.03329 18.632,17.08672 z"
     id="path3079"
     inkscape:connector-curvature="0"
     sodipodi:nodetypes="ssccscsscsscssscsscsccsscsscssccsscsscs" /><g
     id="g3081"
     style="fill:#feb085;fill-opacity:1"
     transform="translate(-111.796,-7.8370014)"><path
       style="fill:#feb085;fill-opacity:1"
       d="m 255.999,423.12991 c 0,25.42666 -24.233,46.06098 -53.794,45.5738 -28.893,-0.46904 -51.746,-21.37459 -51.746,-46.34085 l 0,-19.09072 c 0,-9.42313 9.039,-17.02366 20.032,-16.68937 10.481,0.32478 18.632,8.03329 18.632,17.08672 l 0,19.46042 c 0,6.92332 6.709,12.51984 14.817,12.16741 7.576,-0.31614 13.396,-5.96622 13.396,-12.51983 l 0,-101.64444 c 0,25.42666 -24.233,46.06098 -53.794,45.5738 -28.893,-0.46904 -51.746,-21.37459 -51.746,-46.34085 l 0,-19.09072 c 0,-9.42313 9.039,-17.02366 20.032,-16.68937 10.481,0.32478 18.632,8.03329 18.632,17.08672 l 0,19.46042 c 0,6.92332 6.709,12.51984 14.817,12.16741 7.576,-0.31615 13.396,-5.96623 13.396,-12.51983 l 0,-33.94799 0,-40.8428 c 0,-0.69536 0,-1.39935 0.01,-2.09384 l 77.316,0 z"
       id="path3083"
       inkscape:connector-curvature="0"
       sodipodi:nodetypes="scsscsscsccsscsscscsccs" /><path
       style="fill:#feb085;fill-opacity:1"
       d="m 333.326,246.321 v 30.481 c -22.195,20.053 -48.768,33.533 -77.327,33.533 -28.559,0 -55.132,-13.48 -77.327,-33.533 v -30.481 c 0,-0.805 0,-1.62 0.01,-2.424 h 154.633 c 0.011,0.803 0.011,1.618 0.011,2.424 z"
       id="path3085"
       inkscape:connector-curvature="0" /></g><path
     style="fill:#febf85;fill-opacity:1"
     d="M 144.1875 0 C 66.4125 9.4739031e-15 3.375 48.908999 3.375 109.25 C 3.375 169.591 66.4125 269.59375 144.1875 269.59375 C 221.9625 269.59375 285.03125 169.591 285.03125 109.25 C 285.03125 48.908999 221.9625 0 144.1875 0 z M 144.21875 72.5 C 171.23379 72.5 193.125 94.391211 193.125 121.40625 C 193.125 148.42129 171.23379 170.34375 144.21875 170.34375 C 117.20371 170.34375 95.28125 148.42129 95.28125 121.40625 C 95.28125 94.391211 117.20371 72.5 144.21875 72.5 z "
     id="path3087"
     transform="translate(-1.9321343e-6,0)" /><path
     style="fill:#feb085;fill-opacity:1"
     d="m 174.759,264.46 c -9.844,3.302 -20.074,5.12 -30.565,5.12 C 66.418,269.58 3.376,169.598 3.376,109.252 3.376,48.915999 66.418,0.00199862 144.194,0.00199862 c 10.491,0 20.721,0.888 30.565,2.59099998 C 111.675,13.408999 64.506,57.056999 64.506,109.253 c 0,52.207 47.169,134.057 110.253,155.207 z"
     id="path3089"
     inkscape:connector-curvature="0"
     inkscape:export-filename="/home/connor/Downloads/work/bitcoinpass_extension/icon.png"
     inkscape:export-xdpi="12.6"
     inkscape:export-ydpi="12.6" /><g
     id="g3097"
     transform="translate(-111.796,-7.8370014)" /><g
     id="g3099"
     transform="translate(-111.796,-7.8370014)" /><g
     id="g3101"
     transform="translate(-111.796,-7.8370014)" /><g
     id="g3103"
     transform="translate(-111.796,-7.8370014)" /><g
     id="g3105"
     transform="translate(-111.796,-7.8370014)" /><g
     id="g3107"
     transform="translate(-111.796,-7.8370014)" /><g
     id="g3109"
     transform="translate(-111.796,-7.8370014)" /><g
     id="g3111"
     transform="translate(-111.796,-7.8370014)" /><g
     id="g3113"
     transform="translate(-111.796,-7.8370014)" /><g
     id="g3115"
     transform="translate(-111.796,-7.8370014)" /><g
     id="g3117"
     transform="translate(-111.796,-7.8370014)" /><g
     id="g3119"
     transform="translate(-111.796,-7.8370014)" /><g
     id="g3121"
     transform="translate(-111.796,-7.8370014)" /><g
     id="g3123"
     transform="translate(-111.796,-7.8370014)" /><g
     id="g3125"
     transform="translate(-111.796,-7.8370014)" /><rect
     style="fill:#feb085;fill-opacity:1;stroke:none"
     id="rect4141"
     width="64.865265"
     height="18.101936"
     x="111.77087"
     y="181.03943"
     ry="9.0509682" /><path
     sodipodi:nodetypes="ccccc"
     inkscape:connector-curvature="0"
     id="path4144"
     d="m -340.91976,315.89573 -40.80149,-40.17557 0,-54.68456 38.21073,-42.69508 z"
     inkscape:transform-center-y="20.114852"
     style="fill:#feb085;fill-opacity:1;stroke:none"
     transform="matrix(0.72830577,0,0,0.8743859,394.14579,247.60173)" /></svg>